<svg width="25" height="25" viewBox="0 0 25 25" fill="none" xmlns="http://www.w3.org/2000/svg">
<g clip-path="url(#clip0_803_654)">
<path d="M12.5 6.25C11.6712 6.25 10.8763 6.57924 10.2903 7.16529C9.70424 7.75134 9.375 8.5462 9.375 9.375V21.875C9.375 22.7038 9.70424 23.4987 10.2903 24.0847C10.8763 24.6708 11.6712 25 12.5 25C13.3288 25 14.1237 24.6708 14.7097 24.0847C15.2958 23.4987 15.625 22.7038 15.625 21.875V9.375C15.625 8.5462 15.2958 7.75134 14.7097 7.16529C14.1237 6.57924 13.3288 6.25 12.5 6.25Z" fill="#C0FF0D"/>
<path d="M21.875 0C21.0462 0 20.2513 0.32924 19.6653 0.915291C19.0792 1.50134 18.75 2.2962 18.75 3.125V21.875C18.75 22.7038 19.0792 23.4987 19.6653 24.0847C20.2513 24.6708 21.0462 25 21.875 25C22.7038 25 23.4987 24.6708 24.0847 24.0847C24.6708 23.4987 25 22.7038 25 21.875V3.125C25 2.2962 24.6708 1.50134 24.0847 0.915291C23.4987 0.32924 22.7038 0 21.875 0V0Z" fill="#C0FF0D"/>
<path d="M3.125 12.5C2.2962 12.5 1.50134 12.8292 0.915292 13.4153C0.32924 14.0013 0 14.7962 0 15.625L0 21.875C0 22.7038 0.32924 23.4987 0.915292 24.0847C1.50134 24.6708 2.2962 25 3.125 25C3.9538 25 4.74866 24.6708 5.33471 24.0847C5.92076 23.4987 6.25 22.7038 6.25 21.875V15.625C6.25 14.7962 5.92076 14.0013 5.33471 13.4153C4.74866 12.8292 3.9538 12.5 3.125 12.5Z" fill="#C0FF0D"/>
</g>
<defs>
<clipPath id="clip0_803_654">
<rect width="25" height="25" fill="white"/>
</clipPath>
</defs>
</svg>
